<svg height="512pt" viewBox="0 -38 512 511" width="512pt" xmlns="http://www.w3.org/2000/svg"><path d="m452.808594 391.753906c0 20.359375-16.503906 36.863282-36.863282 36.863282-20.359374 0-36.863281-16.503907-36.863281-36.863282s16.503907-36.863281 36.863281-36.863281c20.359376 0 36.863282 16.503906 36.863282 36.863281zm0 0" fill="#57a4ff"/><path d="m120.820312 8h-113.320312v45.960938h78.050781l80.636719 300.929687h300.164062c6.027344-6.027344 9.40625-9.40625 15.433594-15.433594v-30.527343h-280.332031zm0 0" fill="#b3d8f4"/><path d="m251.105469 391.753906c0 20.359375-16.503907 36.863282-36.863281 36.863282-20.359376 0-36.863282-16.503907-36.863282-36.863282s16.503906-36.863281 36.863282-36.863281c20.359374 0 36.863281 16.503906 36.863281 36.863281zm0 0" fill="#57a4ff"/><path d="m227.800781 391.753906c0 7.488282-6.070312 13.558594-13.558593 13.558594-7.488282 0-13.554688-6.070312-13.554688-13.558594 0-7.484375 6.066406-13.554687 13.554688-13.554687 7.488281 0 13.558593 6.070312 13.558593 13.554687zm0 0" fill="#b3d8f4"/><path d="m429.503906 391.753906c0 7.488282-6.070312 13.558594-13.558594 13.558594-7.488281 0-13.554687-6.070312-13.554687-13.558594 0-7.484375 6.066406-13.554687 13.554687-13.554687 7.488282 0 13.558594 6.070312 13.558594 13.554687zm0 0" fill="#b3d8f4"/><path d="m504.5 78.085938c0 38.703124-31.378906 70.082031-70.082031 70.082031-38.707031 0-70.082031-31.378907-70.082031-70.082031 0-38.707032 31.375-70.085938 70.082031-70.085938 38.703125 0 70.082031 31.378906 70.082031 70.085938zm0 0" fill="#57a4ff"/><path d="m505.984375 64.5h-27.984375v-27.984375h-27.167969v27.984375h-27.980469v27.167969h27.980469v27.980469h27.167969v-27.980469h27.984375zm0 0" fill="#006df0"/><path d="m475.984375 64.5h-27.984375v-27.984375h-27.167969v27.984375h-27.980469v27.167969h27.980469v27.980469h27.167969v-27.980469h27.984375zm0 0" fill="#fff"/><path d="m434.417969 148.167969c-38.707031 0-70.082031-31.378907-70.082031-70.082031 0-6.476563.894531-12.738282 2.539062-18.691407h-232.300781l56.902343 212.636719h252.5l38.171876-142.652344c-12.511719 11.648438-29.285157 18.789063-47.730469 18.789063zm0 0" fill="#ffe477"/><path d="m319.015625 192.953125h57.972656v53.351563h-57.972656zm-94.871094-29.875h65.851563v-53.351563h-80.144532zm22.292969 83.226563h43.558594v-53.351563h-57.851563zm217.980469-98.136719c-24.390625 0-45.859375-12.464844-58.410157-31.363281v46.273437h65.347657l4.230469-15.808594c-3.636719.585938-7.367188.898438-11.167969.898438zm-145.402344 14.910156h57.972656v-53.351563h-57.972656zm86.992187 83.226563h43.078126l14.277343-53.351563h-57.359375v53.351563zm0 0" fill="#ffb655"/><path d="m289.015625 192.953125h57.972656v53.351563h-57.972656zm-94.871094-29.875h65.851563v-53.351563h-80.144532zm22.292969 83.226563h43.558594v-53.351563h-57.851563zm217.980469-98.136719c-24.390625 0-45.859375-12.464844-58.410157-31.363281v46.273437h65.347657l4.230469-15.808594c-3.636719.585938-7.367188.898438-11.167969.898438zm-145.402344 14.910156h57.972656v-53.351563h-57.972656zm86.992187 83.226563h43.078126l14.277343-53.351563h-57.359375v53.351563zm0 0" fill="#ffb655"/><path d="m409.082031 391.753906c0-15.015625 8.980469-27.9375 21.863281-33.679687-4.582031-2.046875-9.65625-3.183594-15-3.183594-20.359374 0-36.863281 16.503906-36.863281 36.863281s16.503907 36.863282 36.863281 36.863282c5.34375 0 10.417969-1.136719 15-3.179688-12.882812-5.746094-21.863281-18.664062-21.863281-33.683594zm0 0" fill="#006df0"/><path d="m7.5 8h30v45.960938h-30zm0 0" fill="#57a4ff"/><path d="m85.550781 53.960938 80.636719 300.929687h30l-80.636719-300.929687zm0 0" fill="#57a4ff"/><path d="m207.378906 391.753906c0-15.015625 8.980469-27.9375 21.863282-33.679687-4.582032-2.046875-9.65625-3.183594-15-3.183594-20.359376 0-36.863282 16.503906-36.863282 36.863281s16.503906 36.863282 36.863282 36.863282c5.34375 0 10.417968-1.136719 15-3.179688-12.882813-5.746094-21.863282-18.664062-21.863282-33.683594zm0 0" fill="#006df0"/><path d="m394.332031 78.085938c0-33.558594 23.585938-61.609376 55.082031-68.476563-4.832031-1.054687-9.847656-1.609375-15-1.609375-38.703124 0-70.082031 31.378906-70.082031 70.085938 0 38.703124 31.378907 70.082031 70.082031 70.082031 5.152344 0 10.167969-.554688 15-1.609375-31.496093-6.867188-55.082031-34.917969-55.082031-68.472656zm0 0" fill="#006df0"/><path d="m422.851562 64.5h25.148438v-27.984375h-27.167969v27.984375h-27.980469v27.167969h27.980469v27.980469h27.167969v-27.980469h-25.148438zm0 0" fill="#e0e0e2"/><path d="m134.574219 59.394531 56.902343 212.636719h30l-56.902343-212.636719zm0 0" fill="#ffb655"/><path d="m464.417969 148.167969c4.453125 0 8.808593-.417969 13.027343-1.210938l4.703126-17.578125c-9.019532 8.398438-20.257813 14.453125-32.738282 17.175782 4.835938 1.054687 9.855469 1.613281 15.007813 1.613281zm0 0" fill="#ffb655"/><g fill="#ff7956"><path d="m376.988281 192.953125h29.019531v53.351563h-29.019531zm0 0"/><path d="m376.988281 163.078125h29.019531v-20.914063c-11.71875-5.203124-21.742187-13.53125-29.019531-23.921874zm0 0"/><path d="m209.851562 109.726562h-30l14.292969 53.351563h30zm0 0"/><path d="m289.996094 109.726562h29.019531v53.351563h-29.019531zm0 0"/><path d="m202.144531 192.953125 14.292969 53.351563h30l-14.292969-53.351563zm0 0"/><path d="m289.996094 192.953125h29.019531v53.351563h-29.019531zm0 0"/></g><path d="m126.574219.5h-126.574219v60.960938h79.796875l80.632813 300.929687h309.03125l19.824218-19.828125v-41.132812h-282.078125zm347.710937 335.851562-11.039062 11.042969h-291.304688l-80.632812-300.933593h-76.308594v-30.960938h16.039062v18.632812h15v-18.632812h10.726563v18.632812h15v-18.632812h10.722656v18.632812h15v-18.632812h17.574219l80.636719 300.929688h278.585937zm0 0"/><path d="m214.242188 412.8125c11.613281 0 21.058593-9.445312 21.058593-21.058594 0-11.609375-9.445312-21.054687-21.058593-21.054687-11.609376 0-21.058594 9.445312-21.058594 21.054687 0 11.613282 9.449218 21.058594 21.058594 21.058594zm0-27.113281c3.339843 0 6.058593 2.714843 6.058593 6.054687s-2.71875 6.058594-6.058593 6.058594c-3.339844 0-6.058594-2.71875-6.058594-6.058594s2.71875-6.054687 6.058594-6.054687zm0 0"/><path d="m415.945312 412.8125c11.613282 0 21.058594-9.445312 21.058594-21.058594 0-11.609375-9.445312-21.054687-21.058594-21.054687-11.609374 0-21.054687 9.445312-21.054687 21.054687 0 11.613282 9.445313 21.058594 21.054687 21.058594zm0-27.113281c3.339844 0 6.058594 2.714843 6.058594 6.054687s-2.71875 6.058594-6.058594 6.058594c-3.339843 0-6.054687-2.71875-6.054687-6.058594s2.714844-6.054687 6.054687-6.054687zm0 0"/><path d="m154.589844 51.898438h191.691406v15h-191.691406zm0 0"/><path d="m481.503906 160.796875-14.488281-3.875-28.792969 107.605469h-226.652344v15h238.167969zm0 0"/><path d="m240.363281 378.328125c2.152344 4.175781 3.242188 8.691406 3.242188 13.425781 0 16.191406-13.171875 29.363282-29.363281 29.363282-16.191407 0-29.363282-13.171876-29.363282-29.363282 0-4.734375 1.09375-9.25 3.242188-13.425781l-13.332032-6.871094c-3.210937 6.230469-4.910156 13.25-4.910156 20.296875 0 24.460938 19.902344 44.363282 44.363282 44.363282 24.460937 0 44.363281-19.902344 44.363281-44.363282 0-7.046875-1.695313-14.066406-4.90625-20.296875zm0 0"/><path d="m442.066406 378.328125c2.152344 4.175781 3.242188 8.691406 3.242188 13.425781 0 16.191406-13.171875 29.363282-29.363282 29.363282-16.1875 0-29.359374-13.171876-29.359374-29.363282 0-4.734375 1.089843-9.25 3.238281-13.425781l-13.332031-6.871094c-3.210938 6.230469-4.90625 13.25-4.90625 20.296875 0 24.464844 19.898437 44.363282 44.359374 44.363282 24.464844 0 44.363282-19.898438 44.363282-44.363282 0-7.046875-1.695313-14.066406-4.90625-20.296875zm0 0"/><path d="m434.417969 155.667969c42.777343 0 77.582031-34.804688 77.582031-77.582031 0-42.78125-34.804688-77.585938-77.582031-77.585938-42.78125 0-77.582031 34.804688-77.582031 77.585938 0 42.777343 34.800781 77.582031 77.582031 77.582031zm0-140.167969c34.507812 0 62.582031 28.074219 62.582031 62.582031 0 34.507813-28.074219 62.582031-62.582031 62.582031-34.507813 0-62.582031-28.074218-62.582031-62.582031 0-34.507812 28.070312-62.582031 62.582031-62.582031zm0 0"/><path d="m413.332031 127.152344h42.167969v-27.984375h27.984375v-42.167969h-27.984375v-27.984375h-42.167969v27.984375h-27.980469v42.167969h27.980469zm-12.980469-42.984375v-12.167969h27.980469v-27.984375h12.167969v27.984375h27.984375v12.167969h-27.984375v27.980469h-12.167969v-27.980469zm0 0"/><path d="m267.496094 102.226562h-97.417969l18.3125 68.351563h79.105469zm-15 53.351563h-52.597656l-10.273438-38.351563h62.871094zm0 0"/><path d="m368.507812 146.609375v23.96875h36.042969v-15h-21.042969v-8.96875zm0 0"/><path d="m267.496094 253.804688v-68.351563h-75.125l18.308594 68.351563zm-15-53.351563v38.351563h-30.304688l-10.273437-38.351563zm0 0"/><path d="m281.515625 185.453125v68.351563h72.972656v-68.351563zm57.972656 53.351563h-42.972656v-38.351563h42.972656zm0 0"/><path d="m368.507812 253.804688h56.335938l18.289062-68.351563h-74.625zm15-53.351563h40.082032l-10.261719 38.351563h-29.820313zm0 0"/><path d="m281.515625 170.578125h72.972656v-68.351563h-72.972656zm15-53.351563h42.972656v38.351563h-42.972656zm0 0"/><path d="m456.570312 339.222656h-104.976562v-15h104.976562zm-114.976562 0h-15v-15h15zm-25 0h-15v-15h15zm0 0" fill="#fff"/></svg>