<?xml version="1.0" encoding="iso-8859-1"?>
<!-- Generator: Adobe Illustrator 21.0.0, SVG Export Plug-In . SVG Version: 6.00 Build 0)  -->
<svg xmlns="http://www.w3.org/2000/svg" xmlns:xlink="http://www.w3.org/1999/xlink" version="1.1" id="Capa_1" x="0px" y="0px" viewBox="0 0 512 512" style="enable-background:new 0 0 512 512;" xml:space="preserve" width="512" height="512">
<g>
	<path style="fill:#FFDF24;" d="M391,0c-8.28,0-15,6.72-15,15c0,16.17-13.46,29.32-30,29.32S316,31.17,316,15c0-8.28-6.72-15-15-15   s-15,6.72-15,15c0,16.17-13.46,29.32-30,29.32c-16.81,0-31.02-13.43-31.02-29.32c0-8.28-6.71-15-15-15c-8.28,0-15,6.72-15,15   c0,16.44-12.73,29.32-28.98,29.32c-16.54,0-30-13.15-30-29.32c0-8.28-6.72-15-15-15s-15,6.72-15,15v482c0,8.28,6.72,15,15,15   s15-6.72,15-15c0-16.17,13.46-29.32,30-29.32s30,13.15,30,29.32c0,8.28,6.72,15,15,15s15-6.72,15-15c0-16.17,13.46-29.32,30-29.32   s30,13.15,30,29.32c0,8.28,6.72,15,15,15s15-6.72,15-15c0-16.17,13.46-29.32,30-29.32s30,13.15,30,29.32c0,8.28,6.72,15,15,15   s15-6.72,15-15V15C406,6.72,399.28,0,391,0z"/>
	<path style="fill:#ECBD00;" d="M406,15v482c0,8.28-6.72,15-15,15s-15-6.72-15-15c0-16.17-13.46-29.32-30-29.32s-30,13.15-30,29.32   c0,8.28-6.72,15-15,15s-15-6.72-15-15c0-16.17-13.46-29.32-30-29.32V44.32c16.54,0,30-13.15,30-29.32c0-8.28,6.72-15,15-15   s15,6.72,15,15c0,16.17,13.46,29.32,30,29.32S376,31.17,376,15c0-8.28,6.72-15,15-15S406,6.72,406,15z"/>
	<path style="fill:#FF9D22;" d="M301.88,224.22v33c0,16.2-13.18,29.37-29.38,29.37H271v18.36c0,8.28-6.72,15-15,15s-15-6.72-15-15   v-18.36h-15.88c-8.28,0-15-6.71-15-15c0-8.28,6.72-15,15-15h46.76v-31.75H239.5c-16.2,0-29.38-13.17-29.38-29.37v-33   c0-16.2,13.18-29.38,29.38-29.38h1.5v-18.35c0-8.28,6.72-15,15-15s15,6.72,15,15v18.35h15.88c8.28,0,15,6.72,15,15   c0,8.29-6.72,15-15,15h-46.76v31.75h32.38C288.7,194.84,301.88,208.02,301.88,224.22z"/>
	<path style="fill:#F3F8F9;" d="M309.11,354.62c0,8.28-6.72,15-15,15h-76.22c-8.28,0-15-6.72-15-15c0-8.29,6.72-15,15-15h76.22   C302.39,339.62,309.11,346.33,309.11,354.62z"/>
	<path style="fill:#F3F8F9;" d="M289.29,394.77c0,8.28-6.72,15-15,15h-36.57c-8.29,0-15-6.72-15-15c0-8.29,6.71-15,15-15h36.57   C282.57,379.77,289.29,386.48,289.29,394.77z"/>
	<path style="fill:#E0E0E0;" d="M289.29,394.77c0,8.28-6.72,15-15,15H256v-30h18.29C282.57,379.77,289.29,386.48,289.29,394.77z"/>
	<path style="fill:#DB7D00;" d="M286.88,163.09H256V99.74c8.28,0,15,6.72,15,15v18.35h15.88c8.28,0,15,6.72,15,15   C301.88,156.38,295.16,163.09,286.88,163.09z"/>
	<path style="fill:#DB7D00;" d="M301.88,224.22v33c0,16.2-13.18,29.37-29.38,29.37H271v18.36c0,8.28-6.72,15-15,15v-63.36h15.88   v-31.75H256v-30h16.5C288.7,194.84,301.88,208.02,301.88,224.22z"/>
	<path style="fill:#E0E0E0;" d="M309.11,354.62c0,8.28-6.72,15-15,15H256v-30h38.11C302.39,339.62,309.11,346.33,309.11,354.62z"/>
</g>















</svg>
