<svg height="480pt" viewBox="-20 0 480 480" width="480pt" xmlns="http://www.w3.org/2000/svg"><path d="m368 214.71875v-190.71875c0-4.417969-3.582031-8-8-8h-240v72c0 13.253906-10.746094 24-24 24h-80v296c0 4.417969 3.582031 8 8 8h254.71875c4.417969 0 8 3.582031 8 8h30.082031l-28.800781-32h40v-144h48v-25.28125c-4.417969 0-8-3.582031-8-8zm0 0" fill="#9bc9ff"/><g fill="#1e81ce"><path d="m360 0h-248c-.167969 0-.320312.078125-.480469.0898438-.648437.0390622-1.292969.1640622-1.910156.3671872-.25.058594-.496094.136719-.738281.230469-.84375.34375-1.625.828125-2.304688 1.441406l-104 96c-.710937.683594-1.285156 1.5-1.695312 2.398438-.117188.261718-.21875.527344-.304688.800781-.261718.714844-.417968 1.464844-.460937 2.222656 0 .167969-.105469.320313-.105469.488281v303.960938c0 13.253906 10.746094 24 24 24h254.71875c4.417969 0 8-3.582031 8-8h-262.71875c-8.835938 0-16-7.164062-16-16v-304l104-96h248c8.835938 0 16 7.164062 16 16v198.71875c4.417969 0 8-3.582031 8-8v-190.71875c0-13.253906-10.746094-24-24-24zm0 0"/><path d="m360 8h-248v80c0 8.835938-7.164062 16-16 16h-88v304c0 8.835938 7.164062 16 16 16h262.71875c0-4.417969-3.582031-8-8-8h-254.71875c-4.417969 0-8-3.582031-8-8v-296h80c13.253906 0 24-10.746094 24-24v-72h240c4.417969 0 8 3.582031 8 8v190.71875c0 4.417969 3.582031 8 8 8v-198.71875c0-8.835938-7.164062-16-16-16zm0 0"/><path d="m112 88v-80l-104 96h88c8.835938 0 16-7.164062 16-16zm-8-61.726562v61.726562c0 4.417969-3.582031 8-8 8h-67.535156"/><path d="m312 224h-240c-4.417969 0-8-3.582031-8-8s3.582031-8 8-8h240c4.417969 0 8 3.582031 8 8s-3.582031 8-8 8zm0 0"/><path d="m296 272h-224c-4.417969 0-8-3.582031-8-8s3.582031-8 8-8h224c4.417969 0 8 3.582031 8 8s-3.582031 8-8 8zm0 0"/><path d="m296 320h-224c-4.417969 0-8-3.582031-8-8s3.582031-8 8-8h224c4.417969 0 8 3.582031 8 8s-3.582031 8-8 8zm0 0"/><path d="m296 368h-224c-4.417969 0-8-3.582031-8-8s3.582031-8 8-8h224c4.417969 0 8 3.582031 8 8s-3.582031 8-8 8zm0 0"/><path d="m312 176h-176c-4.417969 0-8-3.582031-8-8s3.582031-8 8-8h176c4.417969 0 8 3.582031 8 8s-3.582031 8-8 8zm0 0"/><path d="m104 176h-32c-4.417969 0-8-3.582031-8-8s3.582031-8 8-8h32c4.417969 0 8 3.582031 8 8s-3.582031 8-8 8zm0 0"/><path d="m360 480c-2.265625 0-4.425781-.964844-5.945312-2.648438l-72-80c-2.113282-2.347656-2.644532-5.71875-1.359376-8.605468 1.28125-2.886719 4.144532-4.746094 7.304688-4.746094h32v-136c0-4.417969 3.582031-8 8-8h64c4.417969 0 8 3.582031 8 8v136h32c3.160156 0 6.023438 1.859375 7.304688 4.746094 1.285156 2.886718.753906 6.257812-1.359376 8.605468l-72 80c-1.519531 1.683594-3.679687 2.648438-5.945312 2.648438zm-54.039062-80 54.039062 60.039062 54.039062-60.039062h-22.039062c-4.417969 0-8-3.582031-8-8v-136h-48v136c0 4.417969-3.582031 8-8 8zm0 0"/></g></svg>